# This file uses centimeters as units for non-parametric coordinates.

mtllib CookieMan.mtl
g default
v -0.539342 0.662906 0.041338
v 0.460657 0.662906 0.041338
v -0.539343 1.662906 0.041338
v 0.460657 1.662906 0.041338
v -0.539343 1.662906 -0.165266
v 0.460657 1.662906 -0.165266
v -0.539343 0.662906 -0.165266
v 0.460658 0.662906 -0.165266
v -0.792202 0.662906 -0.165266
v 0.713517 0.662906 -0.165266
v 0.713517 0.662906 0.041338
v -0.792202 0.662906 0.041338
v -0.792202 -0.893565 -0.165266
v 0.713517 -0.893565 -0.165266
v 0.713517 -0.893565 0.041338
v -0.792202 -0.893565 0.041338
v 0.713517 0.160614 0.041338
v 0.713517 0.160614 -0.165266
v -0.792202 0.160614 -0.165266
v -0.792202 0.160614 0.041338
v -1.458400 0.662907 -0.165266
v -1.458399 0.662907 0.041338
v -1.458399 0.160614 -0.165266
v -1.458400 0.160614 0.041338
v 1.379714 0.662906 0.041338
v 1.379714 0.160614 0.041338
v 1.379714 0.160614 -0.165266
v 1.379714 0.662906 -0.165266
v 0.713517 1.312907 0.293026
v 0.713517 1.238403 0.442794
v 1.379714 1.238403 0.442794
v 1.379714 1.312907 0.293027
v -0.792202 -0.424419 -0.481696
v -0.792202 -0.483492 -0.340587
v -1.458400 -0.483492 -0.340587
v -1.458400 -0.424419 -0.481696
v -0.059928 -0.893565 0.041338
v -0.059928 0.160614 0.041338
v -0.059928 0.662906 0.041338
v 0.192932 0.662906 0.041338
v 0.192932 1.662906 0.041338
v 0.192932 1.662906 -0.165266
v 0.192932 0.662906 -0.165266
v -0.059928 0.662906 -0.165266
v -0.059928 0.160614 -0.165266
v -0.059928 -0.893565 -0.165266
v 0.713517 -0.692846 0.041338
v 0.713517 -0.692846 -0.165266
v -0.059928 -0.692846 -0.165266
v -0.792202 -0.692846 -0.165266
v -0.792202 -0.692846 0.041338
v -0.059928 -0.692846 0.041338
v -0.059928 -0.692846 0.834080
v 0.713517 -0.692846 0.834080
v -0.059928 -0.893565 0.834080
v 0.713517 -0.893565 0.834080
v -0.059928 -0.893565 0.714254
v -0.059928 -0.692846 0.714254
v 0.713517 -0.692846 0.714254
v 0.713517 -0.893565 0.714254
v 0.713517 -1.552508 0.714254
v -0.059928 -1.552508 0.714254
v 0.713517 -1.552508 0.834080
v -0.059928 -1.552508 0.834080
v -0.792202 -1.888769 -0.165266
v -0.059928 -1.888769 -0.165266
v -0.059928 -1.888769 0.041338
v -0.792202 -1.888769 0.041338
v -0.792202 -1.716586 0.041338
v -0.059928 -1.716586 0.041338
v -0.059928 -1.716586 -0.165266
v -0.792202 -1.716586 -0.165266
v -0.059928 -1.716586 -0.733030
v -0.792202 -1.716586 -0.733030
v -0.059928 -1.888769 -0.733030
v -0.792202 -1.888769 -0.733030
vt 0.375000 0.000000
vt 0.625000 0.000000
vt 0.375000 0.250000
vt 0.625000 0.250000
vt 0.375000 0.500000
vt 0.625000 0.500000
vt 0.375000 0.750000
vt 0.625000 0.750000
vt 0.375000 1.000000
vt 0.625000 1.000000
vt 0.875000 0.000000
vt 0.875000 0.250000
vt 0.125000 0.000000
vt 0.125000 0.250000
vt 0.375000 0.750000
vt 0.625000 0.750000
vt 0.625000 1.000000
vt 0.375000 1.000000
vt 0.375000 0.750000
vt 0.625000 0.750000
vt 0.625000 1.000000
vt 0.375000 1.000000
vt 0.625000 1.000000
vt 0.625000 0.750000
vt 0.375000 0.750000
vt 0.375000 1.000000
vt 0.375000 1.000000
vt 0.375000 0.750000
vt 0.375000 0.750000
vt 0.375000 1.000000
vt 0.625000 1.000000
vt 0.625000 1.000000
vt 0.625000 0.750000
vt 0.625000 0.750000
vt 0.625000 0.750000
vt 0.625000 1.000000
vt 0.625000 1.000000
vt 0.625000 0.750000
vt 0.375000 0.750000
vt 0.375000 1.000000
vt 0.375000 1.000000
vt 0.375000 0.750000
vt 0.496582 1.000000
vt 0.496582 1.000000
vt 0.496582 1.000000
vt 0.558069 0.000000
vt 0.558069 1.000000
vt 0.558069 0.250000
vt 0.558069 0.500000
vt 0.558069 0.750000
vt 0.496582 0.750000
vt 0.496582 0.750000
vt 0.496582 0.750000
vt 0.625000 1.000000
vt 0.625000 0.750000
vt 0.496582 0.750000
vt 0.375000 0.750000
vt 0.375000 1.000000
vt 0.496582 1.000000
vt 0.625000 1.000000
vt 0.496582 1.000000
vt 0.496582 1.000000
vt 0.625000 1.000000
vt 0.496582 1.000000
vt 0.496582 1.000000
vt 0.625000 1.000000
vt 0.625000 1.000000
vt 0.496582 1.000000
vt 0.625000 1.000000
vt 0.625000 1.000000
vt 0.496582 1.000000
vt 0.375000 0.750000
vt 0.496582 0.750000
vt 0.496582 1.000000
vt 0.375000 1.000000
vt 0.375000 1.000000
vt 0.496582 1.000000
vt 0.496582 0.750000
vt 0.375000 0.750000
vt 0.375000 0.750000
vt 0.496582 0.750000
vt 0.496582 0.750000
vt 0.375000 0.750000
vn 0.000000 0.000000 1.000000
vn 0.000000 0.000000 1.000000
vn 0.000000 0.000000 1.000000
vn 0.000000 0.000000 1.000000
vn 0.000000 1.000000 0.000000
vn 0.000000 1.000000 0.000000
vn 0.000000 1.000000 0.000000
vn 0.000000 1.000000 0.000000
vn 0.000000 0.000000 -1.000000
vn 0.000000 0.000000 -1.000000
vn 0.000000 0.000000 -1.000000
vn 0.000000 0.000000 -1.000000
vn 0.000000 -1.000000 0.000000
vn 0.000000 -1.000000 0.000000
vn 0.000000 -1.000000 0.000000
vn 0.000000 -1.000000 0.000000
vn 1.000000 0.000000 0.000001
vn 1.000000 0.000000 0.000001
vn 1.000000 0.000000 0.000001
vn 1.000000 0.000000 0.000001
vn -1.000000 -0.000000 0.000000
vn -1.000000 -0.000000 0.000000
vn -1.000000 -0.000000 0.000000
vn -1.000000 -0.000000 0.000000
vn 0.000000 0.000000 -1.000000
vn 0.000000 0.000000 -1.000000
vn 0.000000 0.000000 -1.000000
vn 0.000000 0.000000 -0.000000
vn 0.000000 1.000000 0.000000
vn 0.000000 1.000000 0.000000
vn 0.000000 1.000000 0.000000
vn 0.000000 1.000000 0.000000
vn 0.000000 -1.000000 0.000000
vn 0.000000 -1.000000 0.000000
vn 0.000000 -0.000000 0.000000
vn 0.000000 -1.000000 0.000000
vn 0.000000 1.000000 0.000000
vn 0.000000 1.000000 0.000000
vn 0.000000 1.000000 0.000000
vn 0.000000 1.000000 0.000000
vn -0.000000 -0.000000 -1.000000
vn 0.000000 0.000000 -1.000000
vn 0.000000 0.000000 -1.000000
vn -0.000000 0.121849 -0.992549
vn 0.000000 0.000000 1.000000
vn 0.000000 0.000000 1.000000
vn 0.000000 -0.143358 0.989671
vn 0.000000 0.000000 1.000000
vn -1.000000 0.000000 0.000000
vn -1.000000 0.000000 0.000000
vn -1.000000 0.000000 -0.000000
vn -1.000000 0.000000 0.000000
vn 1.000000 0.000000 0.000000
vn 1.000000 0.000000 0.000000
vn 1.000000 0.000000 0.000000
vn 1.000000 0.000000 0.000000
vn 0.000000 0.000000 -1.000000
vn 0.000000 0.000000 -1.000000
vn -1.000000 0.000000 -0.000000
vn -1.000000 0.000000 -0.000000
vn -1.000000 0.000000 -0.000000
vn -1.000000 0.000000 -0.000000
vn 0.000000 0.000000 1.000000
vn 0.000000 0.000000 1.000000
vn 1.000000 -0.000001 0.000001
vn 1.000000 -0.000000 0.000001
vn 1.000000 -0.000000 0.000001
vn 1.000000 -0.000000 0.000001
vn 0.000000 1.000000 0.000000
vn 0.000000 1.000000 0.000000
vn -0.000000 0.279425 -0.960168
vn -0.000000 -0.000000 -1.000000
vn -0.000001 -0.922431 -0.386161
vn -0.000001 -0.922431 -0.386161
vn -0.000001 -0.922431 -0.386161
vn -0.000001 -0.922431 -0.386161
vn -0.000000 0.000000 1.000000
vn 0.000000 -0.316073 0.948735
vn -0.000000 -0.234938 0.972010
vn -0.000000 0.000000 1.000000
vn -0.000000 0.000000 1.000000
vn -0.000000 -0.349053 0.937103
vn 0.000000 -1.000000 0.000000
vn 0.000000 -1.000000 0.000000
vn 0.000000 -1.000000 0.000000
vn 0.000000 -1.000000 0.000000
vn 0.000000 -0.000000 -1.000000
vn 0.000000 0.255324 -0.966855
vn 0.000000 0.369565 -0.929205
vn 0.000000 -0.000000 -1.000000
vn -0.000000 0.895335 0.445392
vn -0.000000 0.895335 0.445392
vn -0.000000 0.895336 0.445392
vn -0.000000 0.895335 0.445392
vn -1.000000 0.000001 -0.000001
vn -1.000000 0.000001 -0.000001
vn -1.000000 0.000001 -0.000001
vn -1.000000 0.000001 -0.000001
vn -0.000000 -0.572131 0.820162
vn -0.000000 -0.572131 0.820162
vn 1.000000 -0.000001 0.000001
vn 1.000000 -0.000001 0.000001
vn 0.000000 0.576237 -0.817283
vn 0.000000 0.576237 -0.817282
vn 1.000000 -0.000001 0.000000
vn 1.000000 -0.000001 0.000000
vn 1.000000 -0.000001 0.000000
vn 1.000000 -0.000001 0.000000
vn 0.000000 -0.510032 0.860155
vn 0.000000 -0.510032 0.860155
vn -1.000000 0.000000 -0.000001
vn -1.000000 0.000000 -0.000001
vn 0.000000 0.475745 -0.879583
vn 0.000000 0.475745 -0.879583
vn 0.000000 0.000000 1.000000
vn 0.000000 -1.000000 0.000000
vn 0.000000 -0.000000 0.000000
vn 0.000000 0.000000 1.000000
vn 0.000000 0.000000 1.000000
vn 0.000000 1.000000 0.000000
vn 0.000000 1.000000 0.000000
vn 0.000000 0.000000 -1.000000
vn 0.000000 0.000000 -1.000000
vn 0.000000 0.000000 0.000000
vn 0.000000 0.000000 0.000000
vn 0.000000 0.000000 -1.000000
vn 0.000000 -1.000000 0.000000
vn 0.000000 -1.000000 0.000000
vn 0.000000 -1.000000 0.000000
vn 0.000000 -1.000000 0.000000
vn 1.000000 0.000000 0.000000
vn 1.000000 0.000000 0.000000
vn 0.000000 0.000000 -1.000000
vn 0.000000 0.000000 -1.000000
vn 0.000000 0.000000 -1.000000
vn -1.000000 0.000000 0.000000
vn -1.000000 0.000000 0.000000
vn 0.000000 0.000000 1.000000
vn 0.000000 0.000000 1.000000
vn 0.000000 0.000000 1.000000
vn 0.000000 0.000000 1.000000
vn 0.000000 0.000000 1.000000
vn 0.000000 0.000000 1.000000
vn 0.000000 1.000000 0.000000
vn 0.000000 1.000000 0.000000
vn 0.000000 1.000000 0.000000
vn 0.000000 1.000000 0.000000
vn -1.000000 0.000000 0.000000
vn -1.000000 0.000000 0.000000
vn -1.000000 0.000000 0.000000
vn -1.000000 0.000000 0.000000
vn 0.000000 -1.000000 0.000000
vn 0.000000 -1.000000 0.000000
vn 1.000000 0.000000 0.000000
vn 1.000000 0.000000 0.000000
vn -1.000000 0.000000 0.000000
vn -1.000000 0.000000 0.000000
vn 0.000000 1.000000 0.000000
vn 0.000000 1.000000 0.000000
vn 1.000000 0.000000 0.000000
vn 1.000000 0.000000 0.000000
vn 0.000000 -1.000000 0.000000
vn 0.000000 -1.000000 0.000000
vn 0.000000 -1.000000 0.000000
vn 0.000000 -1.000000 0.000000
vn 0.000000 0.000000 -1.000000
vn 0.000000 0.000000 -1.000000
vn 0.000000 0.000000 -1.000000
vn 0.000000 0.000000 -1.000000
vn 1.000000 0.000000 0.000000
vn 1.000000 0.000000 0.000000
vn 0.000000 0.000000 1.000000
vn 0.000000 0.000000 1.000000
vn -1.000000 0.000000 0.000000
vn -1.000000 0.000000 0.000000
vn 0.000000 0.000000 -1.000000
vn 0.000000 0.000000 -1.000000
vn 1.000000 0.000000 0.000000
vn 1.000000 0.000000 0.000000
vn 1.000000 0.000000 0.000000
vn 1.000000 0.000000 0.000000
vn 0.000000 0.000000 1.000000
vn 0.000000 0.000000 1.000000
vn -1.000000 0.000000 0.000000
vn -1.000000 0.000000 0.000000
vn 0.000000 0.000000 1.000000
vn 0.000000 0.000000 1.000000
vn 1.000000 0.000000 0.000000
vn 1.000000 0.000000 0.000000
vn 0.000000 0.000000 -1.000000
vn 0.000000 0.000000 -1.000000
vn 0.000000 0.000000 -1.000000
vn 0.000000 0.000000 -1.000000
vn -1.000000 0.000000 0.000000
vn -1.000000 0.000000 0.000000
vn 0.000000 1.000000 0.000000
vn 0.000000 1.000000 0.000000
vn 0.000000 1.000000 0.000000
vn 0.000000 1.000000 0.000000
vn 1.000000 0.000000 0.000000
vn 1.000000 0.000000 0.000000
vn 0.000000 -1.000000 0.000000
vn 0.000000 -1.000000 0.000000
vn -1.000000 0.000000 0.000000
vn -1.000000 0.000000 0.000000
s 1
g pCube1
usemtl initialShadingGroup
f 1/1/1 40/46/2 41/48/3 3/3/4
s 2
f 3/3/5 41/48/6 42/49/7 5/5/8
s 3
f 5/5/9 42/49/10 43/50/11 7/7/12
s 4
f 65/72/13 66/73/14 67/74/15 68/75/16
s off
f 2/2/17 8/11/18 6/12/19 4/4/20
f 7/13/21 1/1/22 3/3/23 5/14/24
s 5
f 7/7/25 43/50/26 44/51/27 9/15/28
s off
f 8/8/29 2/10/30 11/17/31 10/16/32
s 6
f 40/47/33 1/9/34 12/18/35 39/45/36
s 7
f 1/9/37 7/7/38 9/15/39 12/18/40
s 8
f 9/15/41 44/51/42 45/52/43 19/25/44
s 9
f 39/45/45 12/18/46 20/26/47 38/44/48
s 10
f 22/27/49 21/28/50 23/29/51 24/30/52
s 11
f 18/24/53 17/23/54 47/54/55 48/55/56
s 8
f 19/25/44 45/52/43 49/56/57 50/57/58
s 12
f 20/26/59 19/25/60 50/57/61 51/58/62
s 9
f 38/44/48 20/26/47 51/58/63 52/59/64
s 13
f 25/31/65 26/32/66 27/33/67 28/34/68
s 7
f 12/18/40 9/15/39 21/28/69 22/27/70
s 8
f 9/15/41 19/25/44 23/29/71 21/28/72
s off
f 33/39/73 34/40/74 35/41/75 36/42/76
s 9
f 20/26/47 12/18/46 22/27/77 24/30/78
f 11/17/79 17/23/80 26/32/81 25/31/82
s off
f 17/23/83 18/24/84 27/33/85 26/32/86
s 8
f 18/24/87 10/16/88 28/34/89 27/33/90
s off
f 29/35/91 30/36/92 31/37/93 32/38/94
f 10/16/95 11/17/96 30/36/97 29/35/98
s 9
f 11/17/79 25/31/82 31/37/99 30/36/100
s 13
f 25/31/65 28/34/68 32/38/101 31/37/102
s 8
f 28/34/89 10/16/88 29/35/103 32/38/104
s off
f 19/25/105 20/26/106 34/40/107 33/39/108
s 9
f 20/26/47 24/30/78 35/41/109 34/40/110
s 10
f 24/30/52 23/29/51 36/42/111 35/41/112
s 8
f 23/29/71 19/25/44 33/39/113 36/42/114
s 9
f 17/23/80 38/44/48 52/59/64 47/54/115
f 11/17/79 39/45/45 38/44/48 17/23/80
s 6
f 2/10/116 40/47/33 39/45/36 11/17/117
s 1
f 41/48/3 40/46/2 2/2/118 4/4/119
s 2
f 42/49/7 41/48/6 4/4/120 6/6/121
s 3
f 43/50/11 42/49/10 6/6/122 8/8/123
s 5
f 44/51/27 43/50/26 8/8/124 10/16/125
s 8
f 45/52/43 44/51/42 10/16/88 18/24/87
f 49/56/57 45/52/43 18/24/87 48/55/126
s 14
f 37/43/127 46/53/128 14/20/129 15/21/130
s 11
f 48/55/56 47/54/55 15/21/131 14/20/132
s 8
f 46/53/133 49/56/57 48/55/126 14/20/134
f 50/57/58 49/56/57 46/53/133 13/19/135
s 12
f 51/58/62 50/57/61 13/19/136 16/22/137
s 9
f 52/59/64 51/58/63 16/22/138 37/43/139
s 15
f 54/60/140 53/61/141 55/62/142 56/63/143
s 16
f 47/54/144 52/59/145 58/65/146 59/66/147
s 17
f 52/59/148 37/43/149 57/64/150 58/65/151
s 14
f 37/43/127 15/21/130 60/67/152 57/64/153
s 11
f 15/21/131 47/54/55 59/66/154 60/67/155
s 17
f 58/65/151 57/64/150 55/62/156 53/61/157
s 16
f 59/66/147 58/65/146 53/61/158 54/60/159
s 11
f 60/67/155 59/66/154 54/60/160 56/63/161
s off
f 62/68/162 61/69/163 63/70/164 64/71/165
f 57/64/166 60/67/167 61/69/168 62/68/169
s 11
f 60/67/155 56/63/161 63/70/170 61/69/171
s 15
f 56/63/143 55/62/142 64/71/172 63/70/173
s 17
f 55/62/156 57/64/150 62/68/174 64/71/175
s 8
f 13/19/135 46/53/133 71/78/176 72/79/177
s 18
f 46/53/178 37/43/179 70/77/180 71/78/181
s 9
f 37/43/139 16/22/138 69/76/182 70/77/183
s 12
f 16/22/137 13/19/136 72/79/184 69/76/185
s 9
f 70/77/183 69/76/182 68/75/186 67/74/187
s 18
f 71/78/181 70/77/180 67/74/188 66/73/189
s off
f 74/80/190 73/81/191 75/82/192 76/83/193
s 12
f 69/76/185 72/79/184 65/72/194 68/75/195
s off
f 72/79/196 71/78/197 73/81/198 74/80/199
s 18
f 71/78/181 66/73/189 75/82/200 73/81/201
s 4
f 66/73/14 65/72/13 76/83/202 75/82/203
s 12
f 65/72/194 72/79/184 74/80/204 76/83/205
